<svg version="1.1" id="Layer_1" xmlns="http://www.w3.org/2000/svg" xmlns:xlink="http://www.w3.org/1999/xlink" x="0px" y="0px"
	 width="100%" viewBox="0 0 1024 1024" enable-background="new 0 0 1024 1024" xml:space="preserve">
<path fill="#000000" opacity="1.000000" stroke="none" 
	d="
M143.159210,645.347412 
	C144.046600,626.752014 146.161896,608.840027 150.386871,591.119263 
	C158.351990,557.711487 173.860504,528.232117 195.664902,501.953461 
	C220.891861,471.549988 251.769363,449.064575 289.289520,436.079346 
	C307.928345,429.628693 327.050079,425.939972 346.773651,424.512665 
	C375.268494,422.450653 403.307831,424.891327 430.869446,431.899048 
	C471.280182,442.173676 506.189026,462.512756 536.449707,491.116516 
	C560.061829,513.435669 579.508301,538.790955 593.667236,568.085205 
	C604.479126,590.454468 611.240417,613.932251 613.475769,638.776428 
	C616.604614,673.552124 610.958069,706.520630 593.392273,736.872437 
	C576.013916,766.900574 550.356201,786.501404 515.828369,791.934204 
	C477.398071,797.981079 446.147858,783.869080 422.381409,753.528625 
	C405.127594,731.502136 396.121216,705.997498 392.608795,678.334106 
	C385.504456,622.381836 401.471161,572.029846 429.482422,524.552673 
	C432.097992,520.119446 434.308197,515.388489 437.837433,511.535919 
	C441.522675,507.513031 445.659576,505.769836 451.213470,507.977905 
	C458.800415,510.994263 466.375000,514.021423 473.659088,517.705261 
	C482.651764,522.253235 484.045563,527.592590 478.230103,535.832092 
	C464.404846,555.420044 453.097168,576.275574 445.989227,599.255127 
	C441.250519,614.574829 438.605133,630.183228 438.084015,646.310791 
	C437.284119,671.064392 441.179352,694.631897 452.955017,716.592773 
	C463.289490,735.865662 479.107330,747.168823 501.322174,747.519592 
	C521.062134,747.831299 536.520325,738.683594 548.283508,723.231384 
	C558.777954,709.445801 563.276001,693.208313 565.602722,676.435059 
	C572.599365,625.996094 556.126587,582.659607 524.422913,544.263245 
	C501.747986,516.801636 474.292328,495.622986 440.877258,482.675079 
	C424.197968,476.212006 406.875824,472.258881 389.100525,470.387756 
	C361.810425,467.515045 334.952148,469.363739 308.770203,478.127655 
	C264.636719,492.900421 231.456543,520.606934 210.697998,562.391296 
	C201.067551,581.776245 196.183731,602.706848 194.267273,624.257141 
	C192.108917,648.527222 193.614441,672.859619 193.383987,697.161743 
	C193.112198,725.824097 193.328873,754.490967 193.313232,783.155884 
	C193.307007,794.565002 189.492905,798.299194 177.920227,798.310486 
	C170.420685,798.317810 162.920303,798.380066 155.421860,798.288513 
	C147.923828,798.197021 144.489563,795.263245 143.452667,787.753845 
	C142.194565,778.642456 142.899048,769.452026 142.895737,760.301575 
	C142.881882,722.139832 143.029648,683.978088 143.159210,645.347412 
z"/>
<path fill="#000000" opacity="1.000000" stroke="none" 
	d="
M325.499268,349.649841 
	C288.589233,337.665680 265.711761,312.913391 259.080963,275.252228 
	C250.612015,227.150909 274.685425,183.858963 317.717072,164.427856 
	C353.197693,148.406448 398.964874,158.103699 425.821014,186.447983 
	C441.236633,202.717865 451.266693,221.515030 453.903656,243.649368 
	C459.185699,287.986023 437.890686,328.881378 395.651550,346.512482 
	C372.785706,356.056946 349.503418,356.537109 325.499268,349.649841 
z"/>
<path fill="#000000" opacity="1.000000" stroke="none" 
	d="
M712.282898,435.586761 
	C743.883972,445.198334 771.635620,460.945038 796.140503,482.401917 
	C819.246582,502.633911 837.350342,526.780396 850.819641,554.312317 
	C861.434631,576.009827 867.417419,599.069885 870.451965,623.046692 
	C872.489746,639.148193 872.277344,655.243103 872.296570,671.367920 
	C872.341553,709.187439 872.322937,747.007141 872.311157,784.826721 
	C872.308228,794.307373 868.442505,798.247070 859.071045,798.309204 
	C851.407532,798.360046 843.742798,798.370422 836.079590,798.296570 
	C827.787415,798.216675 823.487183,794.171997 822.795959,785.898621 
	C822.657593,784.242676 822.717651,782.568604 822.717651,780.902893 
	C822.716736,736.419067 822.699158,691.935181 822.728333,647.451355 
	C822.756470,604.581726 810.320496,565.923645 782.079224,533.389648 
	C752.910522,499.787262 716.183655,478.949799 671.840881,472.204071 
	C663.293457,470.903809 654.739258,469.676514 646.109192,469.357941 
	C616.436462,468.262634 587.401184,472.290649 558.888855,480.470337 
	C550.252930,482.947815 547.865845,481.938965 543.312988,474.218506 
	C539.338745,467.479279 535.431274,460.690643 531.785706,453.770355 
	C527.744812,446.099762 529.567383,441.391541 537.692261,438.761200 
	C557.978027,432.193817 578.646545,427.443237 599.964539,425.590973 
	C612.895081,424.467468 625.822083,423.145294 638.790894,423.783142 
	C663.568054,425.001831 688.178528,427.520325 712.282898,435.586761 
z"/>
<path fill="#000000" opacity="1.000000" stroke="none" 
	d="
M588.521729,194.560394 
	C611.804932,166.736679 641.498596,154.245758 677.065979,156.948151 
	C713.986450,159.753357 743.370117,176.403915 761.971863,208.960983 
	C792.037781,261.583038 772.215149,334.164185 706.471924,356.093262 
	C693.793152,360.322357 680.718933,362.973145 667.251709,362.257172 
	C624.105164,359.963287 585.348389,335.938965 570.742615,290.409943 
	C559.636536,255.790161 566.309082,223.730087 588.521729,194.560394 
M618.382751,239.928574 
	C614.891052,250.772736 614.304077,261.617889 617.131592,272.812744 
	C624.056519,300.230560 651.166382,318.819397 677.833801,314.973877 
	C719.398315,308.980164 740.559509,261.892609 716.778809,227.315445 
	C703.665710,208.249054 681.353455,198.836624 659.399414,203.604645 
	C639.397217,207.948730 626.366943,220.614334 618.382751,239.928574 
z"/>
</svg>